<svg width="1368" height="1303" viewBox="0 0 1368 1303" fill="none" xmlns="http://www.w3.org/2000/svg">
<g clip-path="url(#clip0_428_835)">
<path d="M1301.09 533.569H55.3844V561.477H1301.09V533.569Z" fill="white"/>
<path d="M1131.71 821.758H230.001V849.666H1131.71V821.758Z" fill="white"/>
<path d="M738.862 1055.65C738.847 1064.43 731.017 1072.84 721.175 1075.46C715.077 1077.1 709.025 1076.37 703.738 1073.65C691.65 1067.46 679.796 1067.82 667.1 1071.8C659.239 1074.25 650.692 1075.23 642.41 1075.46C637.294 1075.6 631.742 1073.85 627 1071.64C620.496 1068.61 618.469 1063.13 619.638 1056.03C622.181 1040.74 630.135 1028.09 639.353 1016.11C646.824 1006.38 655.387 997.772 666.133 991.51C676.552 985.435 686.955 985.015 697 991.93C718.165 1006.5 731.906 1026.33 738.379 1051.15C738.597 1051.95 738.644 1052.83 738.738 1053.66C738.831 1054.52 738.847 1055.37 738.862 1055.65Z" fill="white"/>
<path d="M737.295 935.629C736.359 950.996 732.647 963.349 722.54 973.045C720.434 975.065 717.861 976.759 715.241 978.064C708.175 981.545 700.938 979.634 696.493 973.17C691.128 965.354 690.441 956.559 691.845 947.531C693.717 935.458 698.255 924.674 708.128 916.811C718.422 908.623 729.761 911.559 734.456 923.835C736.094 928.092 736.64 932.801 737.295 935.629Z" fill="white"/>
<path d="M681.221 947.673C681.19 955.861 680.021 964.019 674.796 971.089C669.493 978.268 661.288 979.868 653.786 975.036C646.081 970.079 642.166 962.481 639.609 954.043C636.255 943.027 635.928 932.056 640.56 921.288C646.502 907.474 659.417 905.175 669.648 916.223C677.728 924.986 680.613 935.801 681.221 947.673Z" fill="white"/>
<path d="M644.732 990.953C644.202 1000.9 642.533 1009.57 633.019 1013.25C623.551 1016.92 616.049 1012.05 610.029 1005.33C600.842 995.071 596.756 982.998 599.657 969.246C602.542 955.572 614.864 950.382 626.64 958.027C638.821 965.905 643.625 977.979 644.732 990.953Z" fill="white"/>
<path d="M722.978 1002.83C723.773 988.756 728.562 978.034 738.497 969.985C741.07 967.903 744.252 966.178 747.418 965.246C756.34 962.62 764.216 966.893 767.461 975.61C773.341 991.49 764.029 1014.44 748.713 1021.81C737.701 1027.1 727.392 1022.44 724.21 1010.59C723.43 1007.62 723.243 1004.48 722.978 1002.83Z" fill="white"/>
<path d="M920.035 203.109L899.746 222.351L974.175 300.244L994.465 281.002L920.035 203.109Z" fill="white"/>
<path d="M331.849 262.729L310.739 281.072L383.384 364.048L404.494 345.705L331.849 262.729Z" fill="white"/>
<path d="M184.729 422.54L165.279 402.448L383.232 192.973L555.298 370.47L535.147 389.862L382.53 232.441L184.729 422.54Z" fill="white"/>
<path d="M606.471 99.0902L586.084 118.229L697.359 235.876L717.746 216.737L606.471 99.0902Z" fill="white"/>
<path d="M661.865 43.9863L640.684 62.2729L711.747 143.965L732.927 125.679L661.865 43.9863Z" fill="white"/>
<path d="M1170.77 422.069L951.006 190.11L841.281 304.147L821.067 284.833L951.162 149.616L1191.14 402.91L1170.77 422.069Z" fill="white"/>
<path d="M447.543 278.901L427.579 259.307L684.165 0L901.588 221.984L881.53 241.484L684.056 39.8564L447.543 278.901Z" fill="white"/>
<path d="M248.307 554.53L-1.71313 126.272H274.791V154.179H46.9964L272.514 540.498L248.307 554.53Z" fill="white"/>
<path d="M682.147 1302.98L416.498 842.64L440.798 828.733L682.272 1247.23L926.646 828.67L950.852 842.702L682.147 1302.98Z" fill="white"/>
<path d="M1119.09 554.53L1094.89 540.498L1320.4 154.179H1092.62V126.272H1369.11L1119.09 554.53Z" fill="white"/>
<path d="M230.913 626.318H284.816C324.807 626.318 352.117 650.884 352.117 687.742C352.117 724.599 324.807 749.166 284.816 749.166H230.913V626.318ZM283.756 729.867C311.238 729.867 329.034 713.194 329.034 687.742C329.034 662.29 311.238 645.617 283.756 645.617H253.809V729.867H283.756Z" fill="white"/>
<path d="M388.225 687.738C388.225 651.409 416.408 624.559 454.637 624.559C492.865 624.559 521.049 651.238 521.049 687.738C521.049 724.238 492.865 750.918 454.637 750.918C416.408 750.918 388.225 724.067 388.225 687.738ZM497.965 687.738C497.965 662.644 479.467 644.557 454.637 644.557C429.791 644.557 411.293 662.628 411.293 687.738C411.293 712.833 429.791 730.904 454.637 730.904C479.483 730.92 497.965 712.833 497.965 687.738Z" fill="white"/>
<path d="M650.169 686.34H671.834V735.302C658.966 745.65 640.998 750.918 623.561 750.918C585.333 750.918 557.149 724.409 557.149 687.738C557.149 651.052 585.333 624.559 623.92 624.559C644.539 624.559 661.789 631.396 673.425 644.572L658.982 658.619C649.296 648.97 638.191 644.572 624.98 644.572C598.73 644.572 580.232 662.302 580.232 687.754C580.232 712.678 598.731 730.92 624.809 730.92C633.621 730.92 642.246 729.164 650.169 724.596V686.34Z" fill="white"/>
<path d="M825.822 670.028C825.822 697.05 805.733 713.723 773.322 713.723H745.481V749.182H722.585V626.334H773.322C805.733 626.318 825.822 642.82 825.822 670.028ZM802.738 670.028C802.738 654.583 792.35 645.633 772.261 645.633H745.481V694.424H772.261C792.35 694.424 802.738 685.474 802.738 670.028Z" fill="white"/>
<path d="M1058.18 697.749L1038.62 717.763V749.182H1015.72V626.334H1038.62V689.343L1099.57 626.334H1125.29L1073.49 681.263L1128.46 749.182H1101.68L1058.18 697.749Z" fill="white"/>
<path d="M913.457 626.318L866.042 711.438H892.635L913.457 671.504L941.516 727.334L857.105 727.754L844.658 749.725H952.777H966.346H980.134L913.457 626.318Z" fill="white"/>
<path d="M367.526 469.244V487.424C367.526 489.507 367.027 491.278 366.013 492.739C365 494.199 363.627 495.271 361.896 495.955C360.149 496.639 358.433 497.12 356.733 497.4C355.033 497.68 353.193 497.82 351.228 497.82C340.481 497.82 335.1 494.355 335.1 487.424V469.291C335.1 461.972 340.466 458.305 351.228 458.305C362.099 458.321 367.526 461.972 367.526 469.244ZM361.958 487.378V469.136C361.958 464.412 358.402 462.05 351.29 462.05C349.793 462.05 348.467 462.143 347.328 462.314C346.174 462.485 345.082 462.827 344.006 463.324C342.946 463.821 342.103 464.536 341.511 465.515C340.918 466.478 340.622 467.69 340.622 469.151V487.393C340.622 491.806 344.193 494.013 351.352 494.013C358.433 493.982 361.958 491.775 361.958 487.378Z" fill="white"/>
<path d="M419.159 458.903V487.416C419.159 494.346 414.137 497.811 404.108 497.811C402.096 497.811 400.287 497.687 398.711 497.423C397.136 497.174 395.576 496.693 394.032 496.009C392.488 495.325 391.287 494.253 390.414 492.792C389.54 491.332 389.104 489.545 389.104 487.416V458.903H394.609V487.354C394.609 489.871 395.452 491.611 397.152 492.544C398.852 493.492 401.207 493.958 404.201 493.958C407.212 493.958 409.52 493.492 411.173 492.544C412.811 491.596 413.638 489.871 413.638 487.354V458.903H419.159Z" fill="white"/>
<path d="M470.131 462.927H457.154V497.221H451.352V462.912H438.313V458.903H470.131V462.927Z" fill="white"/>
<path d="M520.679 469.889V486.826C520.679 493.756 515.314 497.221 504.552 497.221H489.205V458.903H504.49C515.283 458.903 520.679 462.57 520.679 469.889ZM515.174 486.717V469.826C515.174 468.366 514.877 467.154 514.285 466.19C513.692 465.227 512.85 464.512 511.758 464.062C510.666 463.611 509.559 463.3 508.405 463.114C507.266 462.943 505.94 462.85 504.427 462.85H494.944V493.321H504.131C511.493 493.336 515.174 491.13 515.174 486.717Z" fill="white"/>
<path d="M573.465 469.245V487.425C573.465 489.508 572.966 491.279 571.952 492.74C570.938 494.2 569.566 495.272 567.835 495.956C566.088 496.64 564.372 497.121 562.672 497.401C560.972 497.681 559.131 497.821 557.166 497.821C546.42 497.821 541.039 494.356 541.039 487.425V469.292C541.039 461.973 546.404 458.306 557.166 458.306C568.037 458.322 573.465 461.973 573.465 469.245ZM567.897 487.379V469.137C567.897 464.413 564.341 462.051 557.229 462.051C555.731 462.051 554.406 462.144 553.267 462.315C552.113 462.486 551.021 462.828 549.945 463.325C548.884 463.822 548.042 464.537 547.449 465.516C546.857 466.479 546.56 467.691 546.56 469.152V487.394C546.56 491.807 550.132 494.014 557.291 494.014C564.356 493.983 567.897 491.776 567.897 487.379Z" fill="white"/>
<path d="M626.4 469.245V487.425C626.4 489.508 625.901 491.279 624.887 492.74C623.873 494.2 622.5 495.272 620.769 495.956C619.022 496.64 617.307 497.121 615.607 497.401C613.907 497.681 612.066 497.821 610.101 497.821C599.355 497.821 593.974 494.356 593.974 487.425V469.292C593.974 461.973 599.339 458.306 610.101 458.306C620.956 458.322 626.4 461.973 626.4 469.245ZM620.816 487.379V469.137C620.816 464.413 617.26 462.051 610.148 462.051C608.65 462.051 607.325 462.144 606.186 462.315C605.032 462.486 603.94 462.828 602.864 463.325C601.803 463.822 600.961 464.537 600.368 465.516C599.776 466.479 599.479 467.691 599.479 469.152V487.394C599.479 491.807 603.051 494.014 610.21 494.014C617.291 493.983 620.816 491.776 620.816 487.379Z" fill="white"/>
<path d="M677.362 497.236H670.312L659.285 480.89H653.716V497.236H647.961V458.918H661.468C666.288 458.918 669.75 459.4 671.84 460.364C673.93 461.327 674.975 463.347 674.975 466.408V473.027C674.975 475.389 674.008 477.176 672.074 478.373C670.14 479.569 667.785 480.175 665.024 480.175L677.362 497.236ZM669.251 472.328V467.014C669.251 464.139 666.756 462.71 661.78 462.71H653.716V477.114H661.25C663.979 477.114 665.991 476.772 667.301 476.104C668.596 475.436 669.251 474.177 669.251 472.328Z" fill="white"/>
<path d="M728.985 497.221H723.229V458.903H728.985V497.221ZM754.938 497.221H747.467L729.094 476.85L746.282 458.903H753.223L735.91 476.617L754.938 497.221Z" fill="white"/>
<path d="M797.198 468.064V487.425C797.198 491.2 796.075 493.873 793.845 495.458C791.614 497.027 788.027 497.82 783.083 497.82C779.729 497.82 776.392 497.602 773.069 497.167V493.205C776.75 493.873 780.026 494.215 782.911 494.215C786.311 494.215 788.666 493.671 789.961 492.599C791.271 491.511 791.911 489.522 791.911 486.601V481.582H783.207C781.351 481.582 779.901 481.551 778.887 481.489C777.858 481.427 776.766 481.256 775.627 480.992C774.473 480.712 773.647 480.308 773.101 479.749C772.57 479.205 772.118 478.428 771.775 477.449C771.416 476.47 771.245 475.227 771.245 473.735V468.064C771.245 465.935 771.572 464.195 772.258 462.812C772.929 461.429 773.943 460.434 775.284 459.797C776.626 459.176 777.967 458.756 779.308 458.554C780.65 458.352 782.303 458.259 784.284 458.259C785.906 458.259 787.263 458.305 788.339 458.399C789.431 458.492 790.585 458.74 791.801 459.113C793.018 459.486 794.001 460.015 794.702 460.714C795.42 461.398 796.013 462.361 796.48 463.604C796.964 464.847 797.198 466.339 797.198 468.064ZM791.926 467.768C791.926 465.205 791.365 463.573 790.242 462.843C789.119 462.112 787.091 461.755 784.174 461.755C781.258 461.755 779.246 462.112 778.154 462.812C777.062 463.526 776.532 465.173 776.532 467.768V473.549C776.532 475.444 777.015 476.672 777.982 477.262C778.949 477.853 781.039 478.148 784.237 478.148H791.942V467.768H791.926Z" fill="white"/>
<path d="M876.083 496.049C870.952 497.23 866.226 497.82 861.921 497.82C860.299 497.82 858.771 497.742 857.336 497.618C855.901 497.494 854.341 497.183 852.688 496.732C851.034 496.282 849.599 495.691 848.383 494.961C847.182 494.231 846.184 493.221 845.388 491.915C844.593 490.61 844.203 489.119 844.203 487.425V469.291C844.203 467.054 844.78 465.143 845.95 463.589C847.12 462.035 848.679 460.901 850.66 460.186C852.641 459.471 854.513 458.989 856.291 458.71C858.069 458.43 859.94 458.29 861.921 458.29C866.663 458.29 871.092 458.601 875.194 459.238V463.666C873.697 463.309 871.545 462.983 868.737 462.687C865.93 462.392 863.699 462.252 862.046 462.252C853.951 462.252 849.896 464.568 849.896 469.214V487.285C849.896 488.59 850.286 489.693 851.05 490.626C851.814 491.558 852.859 492.242 854.185 492.692C855.511 493.143 856.805 493.454 858.1 493.64C859.379 493.811 860.783 493.904 862.28 493.904C864.931 493.904 867.754 493.547 870.749 492.848V479.438H861.734V475.429H876.083V496.049Z" fill="white"/>
<path d="M923.967 497.236H897.53V458.918H923.374V462.927H903.285V475.451H921.425V479.46H903.285V493.212H923.967V497.236Z" fill="white"/>
<path d="M977.356 497.236H971.367L966.984 485.598H950.513L946.193 497.236H940.5L955.785 458.918H962.429L977.356 497.236ZM965.564 481.651L959.045 464.357H958.515L951.995 481.651H965.564Z" fill="white"/>
<path d="M1025.3 497.221H1018.25L1007.23 480.874H1001.66V497.221H995.902V458.903H1009.41C1014.23 458.903 1017.69 459.385 1019.78 460.348C1021.87 461.311 1022.92 463.331 1022.92 466.392V473.012C1022.92 475.374 1021.95 477.161 1020.02 478.357C1018.08 479.554 1015.73 480.16 1012.97 480.16L1025.3 497.221ZM1017.19 472.313V466.998C1017.19 464.124 1014.7 462.694 1009.72 462.694H1001.66V477.098H1009.19C1011.92 477.098 1013.93 476.757 1015.24 476.088C1016.54 475.42 1017.19 474.162 1017.19 472.313Z" fill="white"/>
</g>
<defs>
<clipPath id="clip0_428_835">
<rect width="1368" height="1303" fill="white"/>
</clipPath>
</defs>
</svg>
