<svg width="55" height="63" viewBox="0 0 55 63" fill="none" xmlns="http://www.w3.org/2000/svg">
<path d="M28.9941 62.3333C26.5549 61.6832 24.1131 61.042 21.6778 60.3791C19.5877 59.811 17.4977 59.243 15.4218 58.6262C14.1804 58.2569 13.0275 58.3312 11.9196 59.0185C11.6616 59.1788 11.3907 59.3186 11.1147 59.4443C10.5446 59.7046 10.0979 59.9687 10.1672 60.7625C10.2224 61.4023 9.72302 61.7832 9.04645 61.7704C6.40825 61.7165 3.76876 61.6524 1.13055 61.569C0.352566 61.5447 -0.0197355 61.1061 0.000805292 60.2906C0.0906712 56.7835 0.192091 53.2764 0.28966 49.7693C0.352566 47.4984 0.41804 45.2287 0.479662 42.9577C0.504055 42.0511 0.895613 41.6818 1.81225 41.7062C4.28869 41.7716 6.76386 41.8357 9.24031 41.8973C10.3726 41.9255 10.709 42.2845 10.6782 43.4335C10.6679 43.7964 10.6769 44.158 10.6769 44.5952C10.8438 44.5337 11.0042 44.4862 11.157 44.4183C15.0367 42.6859 18.9176 42.691 22.7151 44.5901C24.4431 45.4544 26.1839 45.9711 28.1263 45.9558C30.1752 45.9404 32.2242 46.0814 34.2744 46.1327C36.6956 46.193 38.5417 47.2496 39.8487 49.2731C39.9026 49.3564 39.9616 49.4372 40.0322 49.5411C42.7385 48.2665 45.4242 46.9842 48.1266 45.7365C50.024 44.8619 51.8458 45.0722 53.5121 46.3186C53.9576 46.652 54.335 47.1034 54.6637 47.5586C55.217 48.3229 55.0848 48.8717 54.2875 49.3885C51.6326 51.108 48.9752 52.8225 46.3177 54.5395C43.252 56.5193 40.1735 58.4787 37.1257 60.4868C35.6673 61.4485 34.0613 61.9281 32.368 62.2051C32.2152 62.2307 32.0663 62.2897 31.9161 62.332C30.9442 62.3333 29.9685 62.3333 28.9941 62.3333ZM10.3469 57.508C10.6358 57.358 10.8849 57.2361 11.1262 57.1002C12.6 56.2719 14.1406 56.1167 15.7646 56.5835C18.06 57.2426 20.358 57.894 22.6637 58.5133C24.8718 59.1057 27.0659 59.7995 29.3125 60.1765C31.5322 60.5483 33.7532 60.1598 35.6917 58.9301C40.316 55.9974 44.8991 53.0007 49.4977 50.0283C50.4631 49.4039 51.4247 48.7755 52.3965 48.1434C51.5505 47.2752 50.2333 47.0496 49.0535 47.5868C47.5232 48.2844 46.0083 49.0128 44.487 49.7296C43.2276 50.3245 41.9682 50.9221 40.7037 51.5209C40.7383 51.7825 40.7794 52.0005 40.7961 52.2211C40.8847 53.4662 40.5278 53.8445 39.2876 53.815C35.5929 53.7252 31.8981 53.6342 28.2033 53.5367C27.9003 53.529 27.5884 53.5175 27.2995 53.4393C26.8104 53.3072 26.5562 52.9404 26.5754 52.4416C26.5934 51.9467 26.8592 51.6004 27.3611 51.4914C27.5563 51.4491 27.7642 51.4491 27.9645 51.4543C31.3345 51.5479 34.7032 51.6466 38.0732 51.7402C38.2452 51.7453 38.4172 51.7235 38.5957 51.7133C38.1887 49.7296 36.4697 48.2652 34.5042 48.2049C32.7993 48.1523 31.0931 48.1228 29.3895 48.0651C28.2341 48.0254 27.0748 47.9933 25.9246 47.8882C24.3583 47.7458 23.0065 46.979 21.6059 46.3379C17.9997 44.6876 14.4487 44.8594 11.012 46.8559C10.8014 46.9777 10.596 47.3047 10.5857 47.5458C10.483 49.8347 10.4124 52.1262 10.3534 54.4177C10.3251 55.4217 10.3469 56.4283 10.3469 57.508ZM2.09853 59.5661C4.13849 59.5661 6.12966 59.5661 8.14779 59.5661C8.28901 54.3843 8.43023 49.1897 8.5753 43.9041C6.5148 43.9041 4.55701 43.9041 2.53117 43.9041C2.38739 49.0705 2.24489 54.2676 2.09853 59.5661Z" fill="white"/>
<path d="M28.1624 43.2708C20.0283 43.3041 13.3217 36.672 13.2819 28.5551C13.2421 20.3125 19.8691 13.6406 28.1175 13.6163C36.2992 13.5919 42.9762 20.2188 42.998 28.3858C43.0198 36.5861 36.3916 43.2361 28.1624 43.2708ZM28.1573 41.1909C35.2195 41.1793 40.9375 35.4718 40.9362 28.4358C40.935 21.3998 35.2105 15.6898 28.1547 15.6859C21.0733 15.6821 15.3244 21.4204 15.3424 28.4717C15.3604 35.5051 21.1015 41.2024 28.1573 41.1909Z" fill="white"/>
<path d="M27.0952 5.84289C27.0952 4.32465 27.0965 2.80641 27.0952 1.28688C27.0952 0.771395 27.2094 0.31746 27.7371 0.086646C28.2891 -0.155709 28.9374 0.128962 29.103 0.708562C29.1685 0.936812 29.1775 1.18814 29.1788 1.42921C29.1839 4.40544 29.1814 7.38165 29.1814 10.3579C29.1814 10.4592 29.1839 10.5605 29.1762 10.6618C29.1236 11.3388 28.7038 11.7851 28.1286 11.7774C27.5522 11.7697 27.1144 11.3247 27.1054 10.6413C27.0836 9.04223 27.099 7.44192 27.099 5.84289C27.0965 5.84289 27.0952 5.84289 27.0952 5.84289Z" fill="white"/>
<path d="M36.8538 8.46339C36.8538 9.17122 36.8692 9.87905 36.85 10.5869C36.8307 11.3114 36.4135 11.773 35.8191 11.7756C35.2247 11.7781 34.7856 11.3152 34.7767 10.5959C34.7574 9.16096 34.7587 7.72479 34.7767 6.28861C34.7856 5.54616 35.1875 5.12172 35.8101 5.11915C36.4379 5.11659 36.8282 5.53205 36.85 6.27963C36.8705 7.00798 36.8538 7.73633 36.8538 8.46339Z" fill="white"/>
<path d="M21.5041 8.47236C21.5041 9.18019 21.5208 9.88802 21.4989 10.5959C21.4784 11.3165 21.0509 11.7794 20.4578 11.7768C19.8634 11.7743 19.4346 11.3127 19.4256 10.5882C19.4076 9.15326 19.4076 7.71709 19.4256 6.28091C19.4359 5.53461 19.8364 5.11786 20.4655 5.11914C21.0881 5.12171 21.4784 5.54359 21.4989 6.2886C21.5195 7.01567 21.5041 7.74401 21.5041 8.47236Z" fill="white"/>
<path d="M32.5181 24.8447C32.5258 25.5461 32.1162 26.0321 31.5064 26.0449C30.9172 26.0578 30.523 25.6436 30.4589 24.946C30.342 23.6727 29.4819 22.793 28.2918 22.7276C27.0709 22.6609 26.0811 23.438 25.8513 24.6434C25.6459 25.7205 26.3379 26.8733 27.4355 27.2003C27.8373 27.3195 28.2751 27.3234 28.6962 27.3785C30.6951 27.6376 32.192 29.1289 32.4962 31.1652C32.7684 32.995 31.6823 34.9659 29.8966 35.6763C29.2611 35.9289 28.9414 36.1892 29.0249 36.9073C29.0813 37.392 28.8028 37.828 28.3072 37.8908C27.9734 37.9332 27.5267 37.819 27.2815 37.6036C27.0671 37.4151 26.9695 36.983 26.9862 36.6675C27.0131 36.1174 26.8219 35.8802 26.3122 35.6494C24.7614 34.9492 23.932 33.681 23.7728 31.9961C23.6997 31.2229 24.0835 30.7305 24.7113 30.6869C25.3647 30.6407 25.7499 31.0369 25.8256 31.8332C25.9373 33.0155 26.8347 33.9298 27.9298 33.9824C29.2187 34.0426 30.1828 33.304 30.4268 32.0692C30.6335 31.0228 29.9595 29.8765 28.8965 29.5354C28.5357 29.42 28.1403 29.3982 27.759 29.3635C25.7447 29.1814 24.2286 27.785 23.8216 25.7269C23.4673 23.9381 24.4455 21.9339 26.1697 21.1376C26.7666 20.8619 27.0619 20.5952 26.9862 19.9091C26.9323 19.4142 27.1775 18.9295 27.7115 18.8653C28.0594 18.8243 28.5203 18.9564 28.7784 19.1834C28.9863 19.3667 29.0338 19.8078 29.0326 20.1348C29.0313 20.5631 29.1545 20.7593 29.5833 20.9055C31.301 21.4876 32.4988 23.1316 32.5181 24.8447Z" fill="white"/>
</svg>
