<svg width="33" height="18" viewBox="0 0 33 18" fill="none" xmlns="http://www.w3.org/2000/svg">
<path d="M26.3 2.90295C26.0279 2.39827 25.7594 1.93696 25.526 1.45919C25.218 0.828157 25.5954 0.187399 26.2941 0.160483C27.8891 0.0991734 29.4849 0.0587989 31.08 0.00122793C31.4841 -0.0129779 31.819 0.093192 32.0113 0.470768C32.2022 0.845353 32.0964 1.18555 31.8659 1.51303C30.9756 2.77959 30.0942 4.05288 29.2016 5.31795C28.6937 6.03796 27.9853 5.99534 27.5595 5.22673C27.3261 4.80504 27.0987 4.38036 26.8474 3.9168C26.7087 3.98634 26.5797 4.04615 26.4544 4.11419C18.2659 8.56435 10.0774 13.0138 1.88815 17.4639C1.73603 17.5469 1.58838 17.6464 1.42656 17.7002C1.13947 17.7959 0.872511 17.7398 0.7271 17.4527C0.5884 17.1776 0.648056 16.9189 0.904576 16.7297C1.00301 16.6564 1.11486 16.6011 1.22373 16.542C9.45623 12.0687 17.6887 7.59536 25.9212 3.12202C26.0383 3.05772 26.1531 2.98819 26.3 2.90295ZM28.426 4.46335C29.203 3.34857 29.9495 2.2779 30.7384 1.14667C29.3596 1.19227 28.0621 1.23489 26.7072 1.27975C27.2888 2.3579 27.8399 3.37773 28.426 4.46335Z" fill="white"/>
</svg>
