<svg width="42" height="42" viewBox="0 0 42 42" fill="none" xmlns="http://www.w3.org/2000/svg">
<path d="M15.7529 34.3451C14.6716 35.1008 13.6562 35.8825 12.5721 36.5534C10.0642 38.1048 7.30108 38.9136 4.38575 39.2341C4.24838 39.249 4.11101 39.2732 3.97365 39.2919C3.30537 39.3832 2.79953 38.8847 2.8645 38.211C3.28403 33.8205 4.80991 29.8969 7.73639 26.563C7.76702 26.5286 7.79022 26.4885 7.84591 26.4112C7.73824 26.2956 7.62872 26.1736 7.5127 26.0571C5.38537 23.9196 3.25618 21.784 1.12885 19.6466C0.497704 19.012 0.492136 18.5685 1.1205 17.9452C3.0622 16.0164 4.93707 14.0131 6.9688 12.185C10.5329 8.97786 14.7588 7.21031 19.5323 6.78356C19.9314 6.74815 20.3342 6.74163 20.7306 6.69132C20.918 6.66709 21.125 6.60839 21.2745 6.49937C25.0474 3.73669 29.2093 1.83589 33.7637 0.804432C36.1175 0.271463 38.501 -0.0108614 40.9161 0.000319759C41.68 0.00404681 42.0057 0.332028 42.0002 1.11098C41.951 8.29674 39.7995 14.7949 35.6451 20.6324C35.4298 20.9352 35.3304 21.2296 35.3119 21.6051C35.0622 26.659 33.3646 31.1734 30.0335 34.9731C28.1298 37.1441 26.0127 39.1279 23.981 41.1843C23.516 41.6548 23.0018 41.6054 22.4857 41.0883C20.3454 38.9425 18.2069 36.7938 16.0675 34.647C15.9506 34.5268 15.8262 34.415 15.7529 34.3451ZM40.1782 1.7744C38.3831 2.00454 36.7023 2.12754 35.0585 2.4462C28.8881 3.64258 23.5262 6.44719 19.0404 10.8693C15.0985 14.7557 11.217 18.7036 7.30943 22.6254C7.22312 22.7121 7.14608 22.8062 7.08482 22.8742C11.1334 26.9376 15.1681 30.9861 19.2251 35.057C19.3077 34.9787 19.4209 34.8781 19.5286 34.77C20.2284 34.0703 20.9245 33.3668 21.6253 32.668C21.9121 32.3819 22.2824 32.2244 22.6286 32.4443C22.8857 32.6074 23.1698 32.9195 23.2022 33.1944C23.2357 33.4739 23.0426 33.8504 22.8328 34.0768C22.0912 34.88 21.2995 35.6366 20.5783 36.3605C21.5158 37.3063 22.4244 38.2222 23.347 39.153C23.3804 39.1232 23.451 39.0664 23.515 39.0021C24.8794 37.6333 26.2484 36.2683 27.6063 34.8921C30.1216 32.3418 31.8545 29.3341 32.7827 25.867C32.9674 25.1784 33.0936 24.474 33.2467 23.7761C33.1892 23.7407 33.1307 23.7044 33.0732 23.669C33.011 23.7743 32.9664 23.8982 32.8829 23.983C31.4712 25.4142 30.0576 26.8435 28.6394 28.2682C28.1521 28.7573 27.5664 28.7974 27.1757 28.3846C26.7793 27.9672 26.8248 27.4501 27.3167 26.9544C28.3943 25.867 29.4738 24.7815 30.5579 23.7007C32.029 22.235 33.3785 20.6659 34.5573 18.9533C37.4114 14.8079 39.1702 10.2339 39.8552 5.24615C40.0074 4.14853 40.0631 3.03787 40.1782 1.7744ZM5.72693 21.5287C9.92312 17.3097 14.1277 13.0823 18.3452 8.84276C18.2496 8.84276 18.1596 8.82971 18.0751 8.84462C15.2303 9.35057 12.5944 10.3858 10.2006 12.0163C7.45423 13.8873 5.34917 16.4525 2.99444 18.7483C2.98609 18.7567 2.98887 18.7782 2.99444 18.7418C3.92074 19.6857 4.82476 20.6091 5.72693 21.5287ZM14.2938 33.0043C12.5619 31.2657 10.8559 29.554 9.12491 27.8163C6.79616 30.5035 5.35288 33.6239 4.89252 37.2653C8.53646 36.7677 11.6421 35.3393 14.2938 33.0043Z" fill="white"/>
</svg>
